<?xml version="1.0" encoding="UTF-8"?>
<svg width="24" height="24" viewBox="0 0 24 24" fill="none" xmlns="http://www.w3.org/2000/svg">
  <path d="M17.05 20.28c-.98.95-2.05.8-3.08.35-1.71-.61-2.64-.74-4.26 0-1.93.88-2.98.6-3.84.35-1.41-.4-3.01-1.73-2.52-4.12.33-1.58 2.2-2.4 3.68-2.54 1.45-.14 2.83.4 3.68.4.85 0 2.47-.5 4.18-.38 1.7.12 3.2.72 4.1 1.82-3.8 2.35-3.18 7.12.84 8.12z" fill="#000"/>
  <path d="M15.78 7.34c.5-.61.84-1.45.75-2.3-.72.04-1.6.48-2.12 1.09-.46.53-.86 1.38-.75 2.19.8.06 1.62-.41 2.12-.98z" fill="#000"/>
</svg> 